<?xml version="1.0" encoding="utf-8"?>
<!-- Generator: Adobe Illustrator 23.0.1, SVG Export Plug-In . SVG Version: 6.00 Build 0)  -->
<svg version="1.1" id="Layer_1" xmlns="http://www.w3.org/2000/svg" xmlns:xlink="http://www.w3.org/1999/xlink" x="0px" y="0px"
	 viewBox="0 0 512 512" style="enable-background:new 0 0 512 512;" xml:space="preserve">
<style type="text/css">
	.st0{fill:url(#SVGID_1_);}
	.st1{fill:url(#SVGID_2_);}
</style>
<g>
	<g>
		<linearGradient id="SVGID_1_" gradientUnits="userSpaceOnUse" x1="0" y1="376.6892" x2="512" y2="376.6892">
			<stop  offset="0" style="stop-color:#D297C7"/>
			<stop  offset="9.786059e-02" style="stop-color:#C997C9"/>
			<stop  offset="0.2569" style="stop-color:#B197D0"/>
			<stop  offset="0.4572" style="stop-color:#8A98DA"/>
			<stop  offset="0.6911" style="stop-color:#5398E9"/>
			<stop  offset="0.9503" style="stop-color:#0E99FB"/>
			<stop  offset="1" style="stop-color:#0099FF"/>
		</linearGradient>
		<path class="st0" d="M504.3,244.9l-159.9-0.1c0,0,0,0,0,0c-2.1,0-4,0.8-5.5,2.3c-1.5,1.5-2.3,3.4-2.3,5.5c0,44.1-36.2,80-80.6,80
			c-44,0-79.9-35.8-79.9-79.9c0-4.3-3.5-7.7-7.7-7.7H7.7c-4.3,0-7.7,3.5-7.7,7.7v42.8c0,3.9,2.8,7.1,6.7,7.7l52.9,7.5
			c4.1,13.9,9.6,27.2,16.5,39.8l-32,42.7c-2.3,3.1-2,7.4,0.7,10.1l60.6,60.6c2.7,2.7,7,3,10.1,0.7l42.7-32
			c12.6,6.9,26,12.4,39.8,16.5l7.6,52.9c0.5,3.8,3.8,6.7,7.7,6.7h85.7c3.9,0,7.1-2.8,7.7-6.7l7.6-52.9c13.8-4.1,27.2-9.6,39.8-16.5
			l42.7,32c3.1,2.3,7.4,2,10.1-0.7l60.6-60.6c2.7-2.7,3-7,0.7-10.1l-32-42.7c6.9-12.6,12.4-26,16.5-39.8l52.9-7.5
			c3.8-0.5,6.7-3.8,6.7-7.7v-42.8C512,248.4,508.5,244.9,504.3,244.9z M496.5,288.8l-51.2,7.3c-3.1,0.4-5.6,2.7-6.4,5.7
			c-4.3,16-10.6,31.3-18.8,45.5c-1.6,2.7-1.4,6,0.5,8.5l31,41.4l-51.1,51.1l-41.4-31c-2.5-1.9-5.8-2.1-8.5-0.5
			c-14.3,8.2-29.6,14.6-45.5,18.8c-3,0.8-5.2,3.3-5.7,6.4l-7.3,51.2h-72.2l-7.3-51.2c-0.4-3.1-2.7-5.6-5.7-6.4
			c-16-4.3-31.3-10.6-45.5-18.8c-2.7-1.6-6-1.4-8.5,0.5l-41.4,31l-51.1-51.1l31-41.4c1.9-2.5,2.1-5.8,0.5-8.5
			c-8.2-14.2-14.6-29.6-18.8-45.5c-0.8-3-3.3-5.2-6.4-5.7l-51.2-7.3v-28.4h145.4c4,49,45.1,87.6,95.1,87.6
			c50.4,0,91.8-38.7,95.8-87.8l144.7,0.1V288.8z"/>
	</g>
	<g>
		<linearGradient id="SVGID_2_" gradientUnits="userSpaceOnUse" x1="35.4955" y1="112.485" x2="477.1666" y2="112.485">
			<stop  offset="0" style="stop-color:#D297C7"/>
			<stop  offset="9.786059e-02" style="stop-color:#C997C9"/>
			<stop  offset="0.2569" style="stop-color:#B197D0"/>
			<stop  offset="0.4572" style="stop-color:#8A98DA"/>
			<stop  offset="0.6911" style="stop-color:#5398E9"/>
			<stop  offset="0.9503" style="stop-color:#0E99FB"/>
			<stop  offset="1" style="stop-color:#0099FF"/>
		</linearGradient>
		<path class="st1" d="M43.2,221.6h426.1c4.3,0,7.7-3.5,7.7-7.7s0-7.7,0-7.7v-10.4c0-0.1,0-0.1,0-0.2c0-1.1-0.4-10.8-5.3-17.8
			c-4.4-6.3-10.3-10.1-10.9-10.4l-41.4-26.6l-0.1-5.7C430,123.1,436,105.3,436,85.5c0-19.7-14-47.4-45.2-47.4
			c-17.9,0-28.8,9.7-34.7,17.8C348.7,66.1,346,77.8,346,85.4c-0.4,19.6,5.6,37.9,16.1,49.7l0.1,5.6l-20.5,13.2
			c-0.7-3.4-2-7.5-4.5-11c-4.4-6.3-10.3-10.1-10.9-10.4L285,105.9l-0.1-5.7c10.5-11.9,16.5-29.6,16.5-49.4c0-19.7-14-47.4-45.2-47.4
			c-17.9,0-28.8,9.7-34.7,17.8c-7.4,10.2-10.1,21.9-10.1,29.5c-0.4,19.6,5.6,37.9,16.1,49.7l0.1,5.6l-41.1,26.5
			c-0.7,0.4-6.6,4.2-11,10.5c-2.4,3.5-3.8,7.6-4.5,11.1l-20.6-13.3l0.1-5.6c10.5-11.8,16.5-30.1,16.1-49.7c0-7.6-2.7-19.4-10.1-29.5
			c-5.9-8.1-16.7-17.8-34.7-17.8c-31.2,0-45.2,27.7-45.2,47.4c0,19.8,6,37.5,16.5,49.4l-0.1,5.7L52,167.2c-0.7,0.4-6.6,4.2-11,10.5
			c-4.9,7-5.3,16.7-5.3,17.8c0,0.1,0,0.1,0,0.2v10.4c0,0-0.2,3.5-0.2,7.7S39,221.6,43.2,221.6z"/>
	</g>
</g>
</svg>
