<?xml version="1.0" encoding="UTF-8" standalone="no"?>
<!-- Created with Inkscape (http://www.inkscape.org/) -->

<svg
   xmlns:dc="http://purl.org/dc/elements/1.1/"
   xmlns:cc="http://creativecommons.org/ns#"
   xmlns:rdf="http://www.w3.org/1999/02/22-rdf-syntax-ns#"
   xmlns:svg="http://www.w3.org/2000/svg"
   xmlns="http://www.w3.org/2000/svg"
   xmlns:sodipodi="http://sodipodi.sourceforge.net/DTD/sodipodi-0.dtd"
   xmlns:inkscape="http://www.inkscape.org/namespaces/inkscape"
   width="6.7744489mm"
   height="13.955099mm"
   viewBox="0 0 24.003953 49.447201"
   id="svg3349"
   version="1.1"
   inkscape:version="0.91 r13725"
   sodipodi:docname="table.svg">
  <defs
     id="defs3351" />
  <sodipodi:namedview
     id="base"
     pagecolor="#ffffff"
     bordercolor="#666666"
     borderopacity="1.0"
     inkscape:pageopacity="0.0"
     inkscape:pageshadow="2"
     inkscape:zoom="0.35"
     inkscape:cx="1001.2877"
     inkscape:cy="-386.70497"
     inkscape:document-units="px"
     inkscape:current-layer="layer1"
     showgrid="false"
     fit-margin-top="0"
     fit-margin-left="0"
     fit-margin-right="0"
     fit-margin-bottom="0"
     inkscape:window-width="1920"
     inkscape:window-height="1012"
     inkscape:window-x="-8"
     inkscape:window-y="-8"
     inkscape:window-maximized="1" />
  <metadata
     id="metadata3354">
    <rdf:RDF>
      <cc:Work
         rdf:about="">
        <dc:format>image/svg+xml</dc:format>
        <dc:type
           rdf:resource="http://purl.org/dc/dcmitype/StillImage" />
        <dc:title></dc:title>
      </cc:Work>
    </rdf:RDF>
  </metadata>
  <g
     inkscape:label="Layer 1"
     inkscape:groupmode="layer"
     id="layer1"
     transform="translate(626.28769,-96.210029)">
    <polygon
       style="clip-rule:evenodd;fill:#ccccff;fill-rule:evenodd;stroke:#000000;stroke-width:0.47196496;stroke-miterlimit:4;stroke-dasharray:none;stroke-opacity:1;image-rendering:optimizeQuality;shape-rendering:geometricPrecision;text-rendering:geometricPrecision"
       points="0.477654,18.9742 0.636942,19.1334 0.849221,19.2661 1.0615,19.3723 1.32687,19.4254 1.6188,19.4518 15.0201,19.4254 15.2855,19.4254 15.5508,19.3723 15.7897,19.2661 15.9755,19.1334 16.1612,18.9742 16.2674,18.7884 16.347,18.6027 16.3735,18.3639 16.3735,12.9236 16.347,12.7379 16.2674,12.5522 16.1612,12.3664 15.9755,12.2071 15.7897,12.0745 15.5508,11.9683 15.2855,11.9152 15.0201,11.8887 1.6188,11.8622 1.32687,11.9152 1.0615,11.9683 0.849221,12.0745 0.636942,12.2071 0.477654,12.3664 0.345019,12.5522 0.265375,12.7379 0.238827,12.9236 0.238827,18.3373 0.265375,18.6027 0.345019,18.7884 "
       class="fil1"
       id="polygon4084"
       transform="matrix(0,-2.9775564,2.9775564,0,-660.90528,145.6657)" />
  </g>
</svg>
