<?xml version="1.0" encoding="UTF-8" standalone="no"?>
<!-- Created with Inkscape (http://www.inkscape.org/) -->

<svg
   xmlns:dc="http://purl.org/dc/elements/1.1/"
   xmlns:cc="http://creativecommons.org/ns#"
   xmlns:rdf="http://www.w3.org/1999/02/22-rdf-syntax-ns#"
   xmlns:svg="http://www.w3.org/2000/svg"
   xmlns="http://www.w3.org/2000/svg"
   xmlns:sodipodi="http://sodipodi.sourceforge.net/DTD/sodipodi-0.dtd"
   xmlns:inkscape="http://www.inkscape.org/namespaces/inkscape"
   width="22.863016mm"
   height="21.974129mm"
   viewBox="0 0 81.010687 77.861086"
   id="svg3477"
   version="1.1"
   inkscape:version="0.91 r13725"
   sodipodi:docname="roundTable.svg">
  <defs
     id="defs3479" />
  <sodipodi:namedview
     id="base"
     pagecolor="#ffffff"
     bordercolor="#666666"
     borderopacity="1.0"
     inkscape:pageopacity="0.0"
     inkscape:pageshadow="2"
     inkscape:zoom="0.35"
     inkscape:cx="721.21962"
     inkscape:cy="-521.06945"
     inkscape:document-units="px"
     inkscape:current-layer="layer1"
     showgrid="false"
     inkscape:window-width="1920"
     inkscape:window-height="1012"
     inkscape:window-x="-8"
     inkscape:window-y="-8"
     inkscape:window-maximized="1"
     fit-margin-top="0"
     fit-margin-left="0"
     fit-margin-right="0"
     fit-margin-bottom="0" />
  <metadata
     id="metadata3482">
    <rdf:RDF>
      <cc:Work
         rdf:about="">
        <dc:format>image/svg+xml</dc:format>
        <dc:type
           rdf:resource="http://purl.org/dc/dcmitype/StillImage" />
        <dc:title></dc:title>
      </cc:Work>
    </rdf:RDF>
  </metadata>
  <g
     inkscape:label="Layer 1"
     inkscape:groupmode="layer"
     id="layer1"
     transform="translate(346.21962,66.568335)">
    <polygon
       style="clip-rule:evenodd;fill:#ccccff;fill-rule:evenodd;stroke:#000000;stroke-width:0.271458;stroke-miterlimit:4;stroke-dasharray:none;stroke-opacity:1;image-rendering:optimizeQuality;shape-rendering:geometricPrecision;text-rendering:geometricPrecision"
       points="93.9137,13.2417 94.3046,13.5838 94.6466,13.9258 94.9886,14.3167 95.3062,14.7076 95.6238,15.1229 95.8926,15.5383 96.1613,15.978 96.4056,16.4178 96.6255,16.882 96.821,17.3706 96.992,17.8348 97.1386,18.3479 97.2607,18.8365 97.3585,19.3495 97.4073,19.887 97.4562,20.4001 97.4806,20.9376 97.4562,21.4751 97.4073,22.0125 97.3585,22.5256 97.2607,23.0387 97.1386,23.5517 96.992,24.0403 96.821,24.529 96.6255,24.9931 96.4056,25.4573 96.1613,25.9215 95.8926,26.3369 95.6238,26.7766 95.3062,27.1675 94.9886,27.5829 94.6466,27.9493 94.3046,28.3158 93.9137,28.6578 93.5228,28.9754 93.1074,29.293 92.6921,29.5862 92.2523,29.855 91.7881,30.0993 91.3239,30.3436 90.8353,30.539 90.3467,30.7345 89.8336,30.9055 89.3206,31.0277 88.8075,31.1498 88.27,31.2475 87.7326,31.3208 87.1706,31.3453 86.6087,31.3697 86.0468,31.3453 85.5093,31.3208 84.9718,31.2475 84.4343,31.1498 83.8968,31.0277 83.3838,30.9055 82.8952,30.7345 82.3821,30.539 81.9179,30.3436 81.4537,30.0993 80.9895,29.855 80.5498,29.5862 80.11,29.293 79.7191,28.9754 79.3282,28.6578 78.9373,28.3158 78.5708,27.9493 78.2288,27.5829 77.9112,27.1675 77.618,26.7766 77.3248,26.3369 77.0805,25.9215 76.8362,25.4573 76.6163,24.9931 76.4209,24.529 76.2499,24.0403 76.1033,23.5517 75.9811,23.0387 75.8834,22.5256 75.8101,22.0125 75.7612,21.4751 75.7612,20.9376 75.7612,20.4001 75.8101,19.887 75.8834,19.3495 75.9811,18.8365 76.1033,18.3479 76.2499,17.8348 76.4209,17.3706 76.6163,16.882 76.8362,16.4178 77.0805,15.978 77.3248,15.5383 77.618,15.1229 77.9112,14.7076 78.2288,14.3167 78.5708,13.9258 78.9373,13.5838 79.3282,13.2417 79.7191,12.8997 80.11,12.5821 80.5498,12.3133 80.9895,12.0202 81.4537,11.7759 81.9179,11.556 82.3821,11.3361 82.8952,11.1651 83.3838,10.9941 83.8968,10.8475 84.4343,10.7253 84.9718,10.652 85.5093,10.5787 86.0468,10.5299 86.6087,10.5054 87.1706,10.5299 87.7326,10.5787 88.27,10.652 88.8075,10.7253 89.3206,10.8475 89.8336,10.9941 90.3467,11.1651 90.8353,11.3361 91.3239,11.556 91.7881,11.7759 92.2523,12.0202 92.6921,12.3133 93.1074,12.5821 93.5228,12.8997 "
       class="fil1"
       id="polygon22904"
       transform="matrix(3.6838112,0,0,3.6838112,-624.80958,-104.76777)" />
  </g>
</svg>
