<?xml version="1.0" standalone="no"?>
<!DOCTYPE svg PUBLIC "-//W3C//DTD SVG 20010904//EN"
 "http://www.w3.org/TR/2001/REC-SVG-20010904/DTD/svg10.dtd">
<svg version="1.0" xmlns="http://www.w3.org/2000/svg"
 width="700.000000pt" height="700.000000pt" viewBox="0 0 700.000000 700.000000"
 preserveAspectRatio="xMidYMid meet">
<metadata>
Created by potrace 1.11, written by Peter Selinger 2001-2013
</metadata>
<g transform="translate(0.000000,700.000000) scale(0.100000,-0.100000)"
fill="#000000" stroke="none">
<path d="M2008 6996 c-1 -2 -32 -6 -68 -9 -775 -71 -1486 -623 -1764 -1370
-39 -105 -91 -296 -102 -374 -3 -26 -8 -50 -9 -54 -10 -15 -19 -172 -20 -309
0 -167 11 -299 31 -390 3 -14 8 -36 11 -50 2 -14 9 -43 14 -65 5 -22 11 -47
13 -56 22 -88 93 -271 151 -384 84 -165 93 -180 207 -333 181 -244 385 -422
673 -589 215 -124 519 -219 800 -250 159 -18 514 -4 607 23 10 3 30 7 45 10
189 33 494 152 661 258 83 52 100 131 40 181 -46 39 -86 33 -187 -24 -140 -80
-267 -133 -431 -180 -108 -30 -133 -36 -210 -47 -127 -18 -177 -21 -310 -22
-953 0 -1763 709 -1894 1658 -8 58 -14 175 -14 260 0 524 213 1020 593 1380
90 85 111 103 189 159 267 192 526 299 856 351 90 15 157 18 305 15 105 -1
206 -6 225 -9 177 -33 260 -54 358 -87 426 -147 763 -415 1016 -807 32 -50 66
-94 75 -97 58 -24 121 -3 141 46 21 49 5 95 -74 213 -169 254 -374 456 -630
621 -237 153 -564 276 -826 311 -19 2 -51 7 -70 10 -40 5 -396 14 -402 10z"/>
<path d="M2125 6501 c-11 -5 -29 -19 -40 -31 -19 -22 -20 -38 -23 -636 l-2
-614 -45 -21 c-66 -31 -128 -90 -162 -156 -38 -72 -45 -101 -44 -184 l0 -67
-116 -66 c-63 -36 -120 -66 -124 -66 -5 0 -9 -4 -9 -10 0 -5 -4 -10 -9 -10
-22 0 -504 -285 -518 -306 -20 -31 -12 -99 15 -126 10 -11 35 -23 54 -27 40
-9 51 -5 208 86 58 33 121 70 140 81 19 11 96 55 170 97 330 191 290 174 340
140 100 -69 244 -83 350 -33 71 33 146 107 179 177 22 48 26 69 26 151 -1 78
-5 103 -24 141 -42 87 -127 168 -195 185 l-26 6 0 599 c0 329 0 601 0 604 0 3
-6 19 -15 35 -24 47 -84 70 -130 51z m121 -1502 c88 -54 83 -192 -8 -250 -50
-31 -130 -21 -173 21 -77 74 -60 191 34 237 48 24 100 21 147 -8z"/>
<path d="M4685 5503 c-197 -39 -355 -104 -490 -201 -263 -189 -455 -500 -532
-862 -19 -93 -25 -388 -10 -530 13 -125 14 -132 31 -220 65 -339 209 -656 394
-873 l50 -59 1 -126 2 -127 -303 -195 c-167 -107 -352 -226 -413 -265 -60 -40
-218 -141 -350 -225 -277 -178 -330 -216 -422 -308 -125 -123 -187 -240 -226
-422 -18 -87 -20 -134 -21 -551 -1 -497 -1 -495 56 -525 34 -18 62 -18 96 0
54 28 54 27 57 527 2 432 4 469 23 543 32 121 67 181 162 277 85 86 130 119
360 266 662 422 1149 739 1168 760 24 26 24 27 19 235 -5 230 -4 224 -78 303
-201 214 -366 617 -394 965 -4 47 -9 88 -11 92 -9 14 -5 316 5 358 5 25 12 61
15 81 10 64 66 222 109 307 192 375 499 573 887 570 69 -1 141 -5 160 -9 19
-4 49 -10 65 -13 89 -16 237 -79 325 -139 233 -161 396 -430 457 -757 13 -71
8 -344 -8 -470 -10 -74 -20 -142 -22 -150 -2 -8 -9 -42 -16 -75 -61 -289 -208
-587 -385 -779 -27 -29 -48 -64 -52 -82 -8 -42 1 -404 11 -426 7 -17 53 -49
260 -182 50 -32 133 -85 186 -119 53 -34 211 -136 352 -227 141 -91 321 -207
399 -257 205 -133 232 -146 276 -136 48 11 84 62 78 111 -5 48 -36 75 -236
203 -372 237 -465 297 -785 503 l-330 213 -5 128 -5 129 59 70 c99 118 200
286 260 436 15 36 31 74 36 85 35 80 103 347 116 455 3 25 7 56 10 70 17 91
23 386 10 500 -34 283 -180 583 -385 790 -176 177 -375 281 -622 323 -76 14
-343 20 -394 10z"/>
</g>
</svg>
