<svg version="1" xmlns="http://www.w3.org/2000/svg" width="682.667" height="682.667" viewBox="0 0 512.000000 512.000000"><path d="M253.2 61.8c-9.5 3.4-17.3 11.4-21.2 21.9-1.9 5.1-2.1 7.2-1.7 17.8.4 13.3 2 18.6 8.2 28.9 1.9 3.2 3.5 6.6 3.5 7.5 0 1-6.3 5.7-16.9 12.4-17.9 11.5-23.1 15.9-25.6 21.9-.8 2.1-1.8 3.8-2.1 3.8-.2 0-3.8-2.1-7.9-4.8-8.2-5.1-9.1-7-5.5-11.5 3.2-4 7.8-14.6 9.1-20.5.6-2.9.9-9.9.7-15.5-.2-8.5-.8-11.2-3-15.9-3.5-7.6-9.8-14.2-16.7-17.5-4.8-2.4-6.8-2.8-14.1-2.8-7 0-9.5.5-14.2 2.7-14.9 6.9-22.6 23.3-19.9 42.5 1.4 10.2 4.1 17.5 8.7 24.4 1.9 2.8 3.4 6.1 3.4 7.3 0 1.6-3.7 4.5-17.2 13-25.4 16.2-26.7 17.9-27.5 36.2-.5 10.4-.4 11.3 1.6 13.3L97 229h167.3c164.6 0 167.4 0 169.2-1.9 1.5-1.7 1.7-3.6 1.3-13.8-.6-18.3-1.4-19.4-27.3-36.1-9.3-6-17.1-11.6-17.3-12.4-.2-.9 1.5-4.4 3.8-7.9 5.2-8.1 8-17.2 8.7-28.5.5-7.6.2-10.3-1.6-16-5.2-16.9-18.5-26.4-35.2-25.2-16 1.2-27.8 12.3-31.5 29.7-2.7 13.3 1.7 32.6 9.7 43 3.4 4.3 2.5 6.2-5.3 11.1-3.9 2.5-7.5 4.6-7.9 4.8-.4.2-1.3-1.4-1.9-3.4-1.9-5.7-8.1-10.9-26.2-22.4-11.9-7.5-16.7-11-16.8-12.4 0-1 1.6-4.4 3.7-7.4 5.8-8.8 8.6-18.8 8.7-31.2.1-12.3-1.9-18.7-8.4-26.9-8-10.1-24.4-14.7-36.8-10.3zM68.2 248.6c-2.1 1.5-2.2 2-2.2 20.8 0 17.1.2 19.5 1.8 20.8 1.1 1 8.2 2.5 20.7 4.2 10.5 1.5 19.9 2.8 21.1 3.1 1.6.4 2.7 2.2 4.4 7.2 1.2 3.8 4 10.6 6.1 15.3 2.2 4.6 3.7 9 3.5 9.7-.3.7-5.9 8.5-12.6 17.2-8.6 11.6-12 16.8-12 18.8 0 2.3 4.2 7.1 24.8 27.6 19.5 19.5 25.3 24.7 27.3 24.7 1.8 0 7.9-4 19.2-12.5 9.2-6.9 17.1-12.5 17.5-12.5.5 0 4.7 1.7 9.3 3.9 4.6 2.1 11.4 4.8 15.2 6 3.7 1.3 6.7 2.4 6.7 2.6 0 .1 1.4 9.6 3 21 1.7 11.4 3 20.9 3 21 0 .2.7 1.1 1.6 1.9 1.3 1.4 6.1 1.6 37.3 1.6 32.1 0 36-.2 37.2-1.7.8-.9 2.7-10.5 4.4-22.7l3.1-21 3.9-1.5c2.2-.7 9.3-3.6 15.8-6.3l11.8-5 16.8 12.6c12.4 9.3 17.6 12.6 19.7 12.6 2.4 0 6.7-3.9 27.6-24.8 19.8-19.7 24.8-25.3 24.8-27.4 0-1.8-4-7.9-12.9-19.7l-12.9-17.2 4.3-9.2c2.4-5.1 5.2-11.8 6.3-15 1-3.1 2.1-6 2.4-6.3.3-.2 9.9-1.8 21.3-3.4 14.8-2.1 21.3-3.5 22.7-4.6 1.6-1.6 1.8-3.5 1.8-20.9 0-17.3-.2-19.4-1.8-20.8-1.7-1.5-7.7-1.7-66-1.7-62.9 0-64.2 0-66.2 2-1.4 1.4-2 3.3-2 6.8 0 2.7-.9 8.4-2 12.7-7.2 28.3-34.9 48.1-64.2 46.1-16.2-1.1-28-6.6-39.9-18.6-11.1-11.2-17.9-26.2-17.9-39.7 0-4-.5-5.8-2-7.3-2-2-3.3-2-65.8-2-56.1 0-64 .2-66 1.6zm122.2 12.6c.2 1.3 1 5 1.6 8.3.6 3.3 3.4 10.7 6.2 16.4 4.2 8.8 6.1 11.5 13.1 18.5 12 11.9 23.1 17.8 39.7 21.2 28.1 5.6 59.5-8.1 75.5-33 4.7-7.4 9.1-18.5 10.5-26.9l1.2-6.7H450v11c0 6-.3 11-.7 11-5.2.2-40.7 6.1-41.7 6.9-.8.6-2.8 5.5-4.6 10.9-1.7 5.3-5.4 14.1-8.1 19.5-2.7 5.5-4.9 10.6-4.9 11.4 0 .9 5.7 9.2 12.7 18.5l12.6 16.9-19.4 19.5c-10.6 10.7-19.7 19.4-20.2 19.4-.4 0-8.2-5.6-17.4-12.5-9.1-6.9-17.1-12.5-17.8-12.5-.6 0-5.6 2.2-10.9 5-5.4 2.7-14.3 6.4-19.8 8.2-6.5 2.1-10.5 4-11.3 5.3-.7 1.1-2.4 10.8-3.9 21.5s-2.8 19.5-2.9 19.6c-.1.1-12.8.3-28.2.5l-27.9.4-3.1-21.2c-1.7-11.6-3.3-21.4-3.7-21.8-.3-.3-5.2-2.2-10.9-4.1-5.7-2-14.4-5.5-19.3-8-4.9-2.4-10-4.4-11.4-4.4-1.7 0-7.7 3.9-17.6 11.3-8.3 6.2-15.7 11.7-16.5 12.1-.9.6-7-4.8-21.1-18.9l-19.8-19.8 12.4-16.5c6.8-9.1 12.4-17.4 12.4-18.5 0-1.1-2.2-6.6-4.9-12.1-2.7-5.6-6.1-13.9-7.6-18.6-1.5-4.7-3.5-9.3-4.4-10.2-1.2-1.3-6.2-2.4-19.1-4.3-9.6-1.3-19-2.7-20.7-3l-3.3-.6V259h113l.4 2.2z"/></svg>