<?xml version="1.0" standalone="no"?>
<!DOCTYPE svg PUBLIC "-//W3C//DTD SVG 20010904//EN"
 "http://www.w3.org/TR/2001/REC-SVG-20010904/DTD/svg10.dtd">
<svg version="1.0" xmlns="http://www.w3.org/2000/svg"
 width="700.000000pt" height="700.000000pt" viewBox="0 0 700.000000 700.000000"
 preserveAspectRatio="xMidYMid meet">
<metadata>
Created by potrace 1.11, written by Peter Selinger 2001-2013
</metadata>
<g transform="translate(0.000000,700.000000) scale(0.100000,-0.100000)"
fill="#000000" stroke="none">
<path d="M3385 6943 c-49 -9 -144 -49 -194 -80 -139 -89 -243 -247 -285 -433
-18 -82 -14 -287 7 -385 35 -155 96 -291 174 -388 15 -19 23 -42 23 -68 0 -38
-2 -40 -82 -92 -458 -296 -541 -353 -584 -400 -48 -53 -73 -96 -93 -159 -7
-21 -15 -38 -18 -38 -19 0 -273 175 -274 189 -4 44 4 66 44 124 109 153 167
344 172 556 2 120 -6 176 -42 280 -73 214 -253 382 -442 416 -286 50 -540 -73
-662 -321 -60 -123 -76 -195 -77 -332 0 -64 4 -142 9 -173 13 -85 56 -224 91
-298 28 -59 103 -172 117 -179 4 -1 5 -21 3 -45 -4 -47 20 -29 -297 -232 -323
-209 -351 -229 -410 -310 -25 -35 -61 -124 -69 -175 -3 -19 -6 -108 -7 -197
-1 -183 6 -204 71 -223 24 -8 938 -10 2966 -8 2916 3 2932 3 2954 23 36 32 41
61 41 215 0 163 -10 228 -47 309 -46 102 -96 143 -452 371 -293 187 -286 182
-289 221 -3 28 5 46 32 82 121 159 193 390 193 619 0 257 -134 497 -333 598
-37 19 -72 35 -79 37 -6 1 -40 8 -76 17 -91 20 -228 14 -310 -14 -177 -61
-310 -197 -384 -392 -14 -38 -23 -68 -21 -68 2 0 -2 -17 -9 -38 -19 -52 -14
-273 8 -373 34 -157 75 -258 152 -366 34 -47 44 -71 44 -100 0 -38 -1 -38
-132 -123 -72 -47 -134 -86 -139 -88 -4 -2 -15 21 -24 50 -32 98 -100 173
-235 262 -47 31 -90 59 -96 63 -5 5 -19 13 -30 19 -81 48 -372 240 -386 255
-21 25 -16 74 11 108 87 109 161 291 186 457 17 111 14 275 -5 344 -69 249
-228 419 -445 475 -54 14 -211 19 -270 8z"/>
<path d="M4688 3648 c-36 -7 -83 -55 -84 -85 -8 -314 -116 -574 -324 -783
-145 -146 -314 -242 -520 -295 -122 -31 -332 -38 -441 -16 -30 6 -68 14 -83
17 -98 17 -275 102 -386 184 -258 191 -429 509 -439 817 -1 36 -8 81 -16 99
-28 68 47 65 -1206 62 l-1131 -3 -29 -35 -29 -34 0 -313 c0 -352 3 -373 62
-397 18 -8 58 -17 88 -20 30 -4 66 -8 80 -11 30 -5 164 -24 205 -29 17 -3 53
-7 80 -11 28 -3 57 -8 65 -10 8 -2 40 -7 70 -10 61 -7 162 -23 165 -27 1 -2
12 -34 25 -73 30 -94 123 -319 166 -401 l34 -66 -166 -222 c-278 -371 -284
-379 -285 -385 0 -3 -2 -16 -5 -28 -2 -12 1 -34 6 -49 6 -15 206 -222 445
-461 420 -419 435 -433 472 -433 21 0 52 8 68 18 24 15 188 136 230 169 46 38
333 250 346 256 11 6 41 -4 99 -33 89 -45 285 -124 393 -160 57 -18 67 -25 68
-46 1 -13 2 -27 3 -31 1 -5 6 -33 10 -63 4 -30 9 -66 11 -80 3 -21 27 -185 51
-350 28 -194 33 -211 60 -235 15 -13 36 -25 48 -27 12 -2 292 -3 623 -3 589 0
602 1 629 21 32 23 49 68 58 150 4 32 9 66 11 74 2 8 6 38 10 65 3 28 10 75
15 105 5 30 11 73 14 95 7 56 26 185 31 215 2 14 5 40 7 58 2 31 5 34 73 54
98 30 263 97 372 152 51 25 97 46 102 46 6 0 135 -94 288 -208 348 -260 320
-242 367 -242 39 0 48 7 479 438 430 430 439 440 444 484 l5 45 -226 301
c-124 166 -226 307 -226 312 0 6 18 47 41 91 48 96 118 266 149 364 25 77 31
88 57 91 10 2 38 6 63 9 51 7 90 12 175 25 33 5 83 12 110 15 28 4 57 8 65 10
8 2 39 7 69 10 30 4 62 8 71 10 9 2 41 6 70 10 98 12 119 21 144 57 14 19 16
70 16 351 l0 329 -34 34 c-32 32 -37 34 -107 34 -1052 4 -2146 3 -2171 -2z
m2074 -208 l28 0 0 -195 c-1 -146 -4 -195 -13 -196 -23 -1 -50 -5 -168 -23
-13 -3 -46 -7 -74 -11 -67 -9 -93 -12 -210 -29 -55 -8 -122 -18 -150 -21 -136
-17 -159 -36 -194 -157 -41 -141 -95 -274 -184 -452 -55 -113 -68 -146 -64
-172 4 -25 166 -257 250 -359 28 -33 187 -250 187 -255 0 -3 -156 -161 -347
-352 l-348 -347 -260 195 c-315 237 -325 244 -361 247 -19 2 -79 -22 -179 -73
-151 -76 -286 -131 -434 -175 -44 -13 -88 -28 -99 -34 -35 -19 -50 -65 -68
-211 -2 -19 -7 -51 -9 -70 -14 -91 -34 -229 -40 -270 -3 -25 -8 -56 -10 -70
-9 -65 -19 -136 -19 -144 -1 -12 -974 -12 -986 0 -4 5 -11 34 -14 64 -4 30
-11 82 -16 115 -18 120 -21 143 -46 320 -29 207 -37 240 -68 260 -12 8 -67 28
-121 45 -151 47 -287 103 -439 179 -100 50 -145 68 -164 65 -25 -5 -81 -37
-120 -69 -9 -8 -125 -95 -257 -194 l-240 -180 -347 347 c-192 191 -348 349
-348 352 0 4 131 183 157 215 41 50 246 329 263 358 29 48 24 81 -27 172 -74
136 -139 290 -189 450 -56 179 -55 179 -214 200 -25 3 -56 8 -70 10 -14 3 -45
7 -70 10 -25 3 -56 7 -70 10 -14 2 -45 7 -70 10 -25 3 -72 10 -105 15 -33 5
-80 12 -105 15 -25 3 -54 8 -65 10 -11 2 -28 4 -37 4 -17 1 -18 17 -18 196 l0
195 995 0 c789 0 995 -3 996 -12 0 -7 2 -21 4 -30 2 -9 5 -34 8 -55 26 -181
122 -415 229 -558 195 -259 455 -434 752 -504 656 -157 1321 205 1546 842 31
89 48 157 57 227 3 25 7 52 9 60 1 8 3 18 3 22 1 4 16 8 34 10 23 2 1725 1
1919 -2z"/>
</g>
</svg>
