<?xml version="1.0" encoding="UTF-8" standalone="no"?>
<!-- Created with Inkscape (http://www.inkscape.org/) -->

<svg
   xmlns:dc="http://purl.org/dc/elements/1.1/"
   xmlns:cc="http://creativecommons.org/ns#"
   xmlns:rdf="http://www.w3.org/1999/02/22-rdf-syntax-ns#"
   xmlns:svg="http://www.w3.org/2000/svg"
   xmlns="http://www.w3.org/2000/svg"
   xmlns:sodipodi="http://sodipodi.sourceforge.net/DTD/sodipodi-0.dtd"
   xmlns:inkscape="http://www.inkscape.org/namespaces/inkscape"
   width="9.4975204mm"
   height="12.307285mm"
   viewBox="0 0 33.652632 43.608491"
   id="svg3355"
   version="1.1"
   inkscape:version="0.91 r13725"
   sodipodi:docname="seat.svg">
  <defs
     id="defs3357" />
  <sodipodi:namedview
     id="base"
     pagecolor="#ffffff"
     bordercolor="#666666"
     borderopacity="1.0"
     inkscape:pageopacity="0.0"
     inkscape:pageshadow="2"
     inkscape:zoom="0.35"
     inkscape:cx="197.5406"
     inkscape:cy="-238.19575"
     inkscape:document-units="px"
     inkscape:current-layer="layer1"
     showgrid="false"
     fit-margin-top="0"
     fit-margin-left="0"
     fit-margin-right="0"
     fit-margin-bottom="0"
     inkscape:window-width="1920"
     inkscape:window-height="1005"
     inkscape:window-x="-9"
     inkscape:window-y="-9"
     inkscape:window-maximized="1" />
  <metadata
     id="metadata3360">
    <rdf:RDF>
      <cc:Work
         rdf:about="">
        <dc:format>image/svg+xml</dc:format>
        <dc:type
           rdf:resource="http://purl.org/dc/dcmitype/StillImage" />
        <dc:title></dc:title>
      </cc:Work>
    </rdf:RDF>
  </metadata>
  <g
     inkscape:label="Layer 1"
     inkscape:groupmode="layer"
     id="layer1"
     transform="translate(-177.4594,-250.55796)">
    <path
       inkscape:connector-curvature="0"
       id="path4080"
       class="fil0"
       d="m 186.93297,266.44005 0,-3.39751 0.39493,-1.65939 0,-1.65938 -0.39493,-1.65939 -0.79017,-0.79017 -1.26446,0 -1.26414,0.79017 -0.86922,0.86922 -0.39493,1.18541 -0.39524,2.13336 0,2.05432 -0.47397,2.92353 0,3.31878 0.47397,5.45215 0.39524,4.18799 1.26415,2.44955 0.39524,0.47398 0.8689,0.39524 1.26446,-0.39524 0.79017,-0.86922 0.39493,-1.65938 -0.39493,-2.92353 0,-3.31879 2.5286,0 0,3.31879 0.39493,1.65938 0.86922,1.65939 1.1851,0.86921 1.26446,0.39493 3.31845,0 0,2.52861 -3.31845,0 -1.26446,0.79017 -0.39493,0.86922 -0.39524,1.26414 0.39524,0.79017 0.39493,0.86922 0.47429,0.39493 0.79017,0.39524 2.92353,0 9.16584,0 0.86922,-0.39524 0.39524,-0.39493 0.8689,-0.86922 0,-0.79017 0,-1.26414 -0.8689,-0.86922 -1.26446,-0.79017 -3.7137,0 0,-2.52861 1.65939,0 1.26414,-0.39493 1.65939,-0.47428 2.44955,-2.44956 1.65939,-3.31846 0.86922,-5.05719 -0.86922,-5.3731 -1.65939,-3.79275 -2.44955,-2.05431 -2.92353,-0.86922 -1.65939,0 0,-2.44956 3.7137,0 0.86922,-0.47397 0.39524,-0.39524 0.8689,-0.79017 0,-1.26415 0,-0.86921 -0.8689,-0.79017 -0.39524,-0.86922 -0.86922,0 -9.16584,0 -2.92353,0 -0.79017,0 -0.47429,0.86922 -0.39493,0.79017 -0.39524,0.86921 0.39524,1.26415 0.39493,0.79017 0.47429,0.39524 0.79017,0.47397 3.31845,0 0,2.44956 -3.31845,0 -1.26446,0.47398 -1.1851,0.79016 -0.86922,1.65939 -0.39493,1.65939 0,3.39751 -2.5286,0 z m 9.56076,15.80338 5.0572,0 -5.0572,0 z m 5.0572,2.52861 -5.0572,0 5.0572,0 z m -5.0572,-28.76198 5.0572,0 -5.0572,0 z m 5.0572,2.44956 -5.0572,0 5.0572,0 z m -14.61799,15.8821 0,-7.90169 0,7.90169 z m 2.5286,-7.90169 0,7.90169 0,-7.90169 z"
       style="clip-rule:evenodd;fill:#E1E2E3;fill-rule:evenodd;image-rendering:optimizeQuality;shape-rendering:geometricPrecision;text-rendering:geometricPrecision" />
    <path
       inkscape:connector-curvature="0"
       id="path4082"
       class="fil1"
       d="m 183.61419,269.75875 0,-3.31879 0.39524,-1.65907 0,-1.73844 -0.39524,-1.65938 -0.86922,-0.79017 -1.26415,0 -1.18541,0.79017 -0.86921,0.86922 -0.39493,1.26414 -0.39524,2.05463 0,2.05432 -0.47398,2.92353 0,3.39781 0.47398,5.37308 0.39524,4.18799 1.26414,2.5283 0.39525,0.39524 0.79016,0.39493 1.26415,-0.39493 0.86922,-0.86922 0.39524,-1.65939 -0.39524,-2.92353 0,-3.31878 2.5286,0 0,3.31878 0.39493,1.65939 0.79017,1.65907 1.26446,0.86922 1.26414,0.39524 3.31879,0 0,2.52861 -3.31879,0 -1.26414,0.79016 -0.39525,0.86891 -0.39492,1.26446 0.39492,0.79016 0.39525,0.86922 0.39492,0.39493 0.86922,0.39524 2.92353,0 9.16584,0 0.86922,-0.39524 0.39524,-0.39493 0.79017,-0.86922 0,-0.79016 0,-1.26446 -0.79017,-0.86891 -1.26446,-0.79016 -3.79275,0 0,-2.52861 1.73844,0 1.18541,-0.39524 1.73812,-0.39493 2.44955,-2.5286 1.65939,-3.31879 0.86922,-4.97784 -0.86922,-5.45215 -1.65939,-3.7137 -2.44955,-2.13367 -2.92353,-0.79017 -1.73844,0 0,-2.52829 3.79275,0 0.86922,-0.39524 0.39524,-0.47398 0.79017,-0.79017 0,-1.26446 0,-0.8689 -0.79017,-0.79017 -0.39524,-0.86922 -0.86922,0 -9.16584,0 -2.92353,0 -0.86922,0 -0.39492,0.86922 -0.39525,0.79017 -0.39492,0.8689 0.39492,1.26446 0.39525,0.79017 0.39492,0.47398 0.86922,0.39524 3.31879,0 0,2.52829 -3.31879,0 -1.26414,0.39524 -1.26446,0.79017 -0.79017,1.73843 -0.39493,1.65908 0,3.31878 -2.5286,0 z m 9.56108,15.80338 4.97785,0 -4.97785,0 z m 4.97785,2.5286 -4.97785,0 4.97785,0 z m -4.97785,-28.76197 4.97785,0 -4.97785,0 z m 4.97785,2.52829 -4.97785,0 4.97785,0 z m -14.53893,15.80338 0,-7.90169 0,7.90169 z m 2.5286,-7.90169 0,7.90169 0,-7.90169 z"
       style="clip-rule:evenodd;fill:#C2E085;fill-rule:evenodd;stroke:#000000;stroke-width:1.40530229;stroke-miterlimit:4;stroke-dasharray:none;stroke-opacity:1;image-rendering:optimizeQuality;shape-rendering:geometricPrecision;text-rendering:geometricPrecision" />
  </g>
</svg>
