<?xml version="1.0" encoding="UTF-8" standalone="no"?>
<!-- Created with Inkscape (http://www.inkscape.org/) -->

<svg
   xmlns:dc="http://purl.org/dc/elements/1.1/"
   xmlns:cc="http://creativecommons.org/ns#"
   xmlns:rdf="http://www.w3.org/1999/02/22-rdf-syntax-ns#"
   xmlns:svg="http://www.w3.org/2000/svg"
   xmlns="http://www.w3.org/2000/svg"
   xmlns:sodipodi="http://sodipodi.sourceforge.net/DTD/sodipodi-0.dtd"
   xmlns:inkscape="http://www.inkscape.org/namespaces/inkscape"
   width="16.541916mm"
   height="70.35466mm"
   viewBox="0 0 58.613088 249.28816"
   id="svg10829"
   version="1.1"
   inkscape:version="0.91 r13725"
   sodipodi:docname="seats.svg">
  <defs
     id="defs10831" />
  <sodipodi:namedview
     id="base"
     pagecolor="#ffffff"
     bordercolor="#666666"
     borderopacity="1.0"
     inkscape:pageopacity="0.0"
     inkscape:pageshadow="2"
     inkscape:zoom="0.35"
     inkscape:cx="181.4494"
     inkscape:cy="-141.07021"
     inkscape:document-units="px"
     inkscape:current-layer="layer1"
     showgrid="false"
     fit-margin-top="0"
     fit-margin-left="0"
     fit-margin-right="0"
     fit-margin-bottom="0"
     inkscape:window-width="1920"
     inkscape:window-height="1005"
     inkscape:window-x="-9"
     inkscape:window-y="-9"
     inkscape:window-maximized="1" />
  <metadata
     id="metadata10834">
    <rdf:RDF>
      <cc:Work
         rdf:about="">
        <dc:format>image/svg+xml</dc:format>
        <dc:type
           rdf:resource="http://purl.org/dc/dcmitype/StillImage" />
        <dc:title></dc:title>
      </cc:Work>
    </rdf:RDF>
  </metadata>
  <g
     inkscape:label="Layer 1"
     inkscape:groupmode="layer"
     id="layer1"
     transform="translate(-193.5506,-142.00384)">
    <g
       style="clip-rule:evenodd;fill-rule:evenodd;image-rendering:optimizeQuality;shape-rendering:geometricPrecision;text-rendering:geometricPrecision"
       transform="matrix(0,-3.1462396,3.1462396,0,193.80425,461.92717)"
       id="g4060">
      <g
         transform="matrix(0.94638576,0,0,0.94638576,22.447973,-0.08330838)"
         id="g4062"
         style="fill-rule:evenodd">
        <path
           inkscape:connector-curvature="0"
           id="path4064"
           class="fil0"
           d="m 10.2965,3.1845 1.14104,0 0.557298,0.132635 0.557298,0 0.557298,-0.132635 0.265375,-0.265375 0,-0.424663 -0.265375,-0.424558 -0.291923,-0.291923 -0.398115,-0.132635 -0.716481,-0.13274 -0.689933,0 -0.981856,-0.159183 -1.1146009,0 -1.831079,0.159183 -1.40652,0.13274 -0.822673,0.424558 -0.159183,0.13274 -0.13274,0.291818 0.13274,0.424663 0.291923,0.265375 0.557298,0.132635 0.981856,-0.132635 1.1146,0 0,0.849221 -1.1146,0 -0.557298,0.132635 -0.557298,0.291923 -0.291923,0.39801 -0.132635,0.424663 0,1.11449 -0.849221,0 0,-1.11449 -0.2653759,-0.424663 -0.291923,-0.132635 -0.424558,-0.13274 -0.265375,0.13274 -0.291923,0.132635 -0.132635,0.159288 -0.13274,0.265375 0,0.981856 0,3.07831 0.13274,0.291923 0.132635,0.13274 0.291923,0.291818 0.265375,0 0.424558,0 0.291923,-0.291818 0.2653759,-0.424663 0,-1.24723 0.849221,0 0,0.557298 0.132635,0.424558 0.159288,0.557298 0.822673,0.822673 1.11449,0.557298 1.698439,0.291923 1.8045309,-0.291923 1.27378,-0.557298 0.689933,-0.822673 0.291923,-0.981856 0,-0.557298 0.822673,0 0,1.24723 0.159183,0.291923 0.13274,0.13274 0.265375,0.291818 0.424558,0 0.291923,0 0.265375,-0.291818 0.291923,-0.13274 0,-0.291923 0,-3.07831 0,-0.981856 0,-0.265375 -0.291923,-0.159288 -0.265375,-0.132635 -0.291923,-0.13274 -0.424558,0.13274 -0.265375,0.132635 -0.13274,0.159288 -0.159183,0.265375 0,1.11449 -0.822673,0 0,-1.11449 -0.159183,-0.424663 -0.265375,-0.39801 -0.557298,-0.291923 -0.557298,-0.132635 -1.14104,0 0,-0.849221 z m -5.3074999,3.21094 0,1.69844 0,-1.69844 z m -0.849221,1.69844 0,-1.69844 0,1.69844 z m 9.6595899,-1.69844 0,1.69844 0,-1.69844 z m -0.822673,1.69844 0,-1.69844 0,1.69844 z m -5.3339399,-4.90939 2.6537499,0 -2.6537499,0 z m 2.6537499,0.849221 -2.6537499,0 2.6537499,0 z"
           style="fill:#808080" />
        <path
           inkscape:connector-curvature="0"
           id="path4066"
           class="fil1"
           d="m 9.1819291,2.0699 1.1146009,0 0.557193,0.13274 0.583846,0 0.557298,-0.13274 0.265375,-0.291923 0,-0.424558 -0.265375,-0.398115 -0.291923,-0.291923 -0.424558,-0.132635 -0.690038,-0.13274 -0.6899339,0 -0.981856,-0.159183 -1.14114,0 -1.804529,0.159183 -1.40652,0.13274 -0.8491169,0.424558 -0.13274,0.13274 -0.132635,0.265375 0.132635,0.424558 0.291923,0.291923 0.5572989,0.13274 0.981856,-0.13274 1.1146,0 0,0.849221 -1.1146,0 -0.557298,0.132635 -0.557193,0.265375 -0.2919239,0.424663 -0.13274,0.424558 0,1.1146 -0.849221,0 0,-1.1146 -0.265375,-0.424558 -0.291818,-0.13274 -0.424663,-0.132635 -0.265374,0.132635 -0.291923,0.13274 -0.132635,0.132635 -0.13274,0.291923 0,0.981856 0,3.07831 0.13274,0.291923 0.132635,0.13274 0.291923,0.265375 0.265374,0 0.424663,0 0.291818,-0.265375 0.265375,-0.424663 0,-1.27378 0.849221,0 0,0.583846 0.13274,0.398115 0.1326359,0.583741 0.849221,0.822673 1.1146,0.557298 1.671789,0.291923 1.83108,-0.291923 1.2472309,-0.557298 0.716586,-0.822673 0.265375,-0.981856 0,-0.583846 0.849116,0 0,1.27378 0.13274,0.291923 0.159183,0.13274 0.265375,0.265375 0.424663,0 0.291818,0 0.265375,-0.265375 0.291923,-0.13274 0,-0.291923 0,-3.07831 0,-0.981856 0,-0.291923 -0.291923,-0.132635 -0.265375,-0.13274 -0.291818,-0.132635 -0.424663,0.132635 -0.265375,0.13274 -0.159183,0.132635 -0.13274,0.291923 0,1.1146 -0.849116,0 0,-1.1146 -0.13274,-0.424558 -0.265375,-0.424663 -0.583846,-0.265375 -0.557193,-0.132635 -1.1146009,0 0,-0.849221 z m -5.3074999,3.21105 0,1.67179 0,-1.67179 z m -0.849221,1.67179 0,-1.67179 0,1.67179 z m 9.6595908,-1.67179 0,1.67179 0,-1.67179 z m -0.849116,1.67179 0,-1.67179 0,1.67179 z M 6.5281831,2.0699 l 2.653749,0 -2.653749,0 z m 2.653749,0.849221 -2.653749,0 2.653749,0 z"
           style="fill:#ccccff;stroke:#000000;stroke-width:0.47196496;stroke-miterlimit:4;stroke-dasharray:none;stroke-opacity:1" />
        <polygon
           id="polygon4068"
           class="fil1"
           points="16.3735,12.9236 16.347,12.7379 16.2674,12.5522 16.1612,12.3664 15.9755,12.2071 15.7897,12.0745 15.5508,11.9683 15.2855,11.9152 15.0201,11.8887 1.6188,11.8622 1.32687,11.9152 1.0615,11.9683 0.849221,12.0745 0.636942,12.2071 0.477654,12.3664 0.345019,12.5522 0.265375,12.7379 0.238827,12.9236 0.238827,18.3373 0.265375,18.6027 0.345019,18.7884 0.477654,18.9742 0.636942,19.1334 0.849221,19.2661 1.0615,19.3723 1.32687,19.4254 1.6188,19.4518 15.0201,19.4254 15.2855,19.4254 15.5508,19.3723 15.7897,19.2661 15.9755,19.1334 16.1612,18.9742 16.2674,18.7884 16.347,18.6027 16.3735,18.3639 "
           style="fill:#ccccff;stroke:#000000;stroke-width:0.47196496;stroke-miterlimit:4;stroke-dasharray:none;stroke-opacity:1" />
      </g>
      <g
         style="fill-rule:evenodd"
         id="g4070"
         transform="matrix(0.94638576,0,0,0.94638576,43.62044,-0.08330838)">
        <path
           inkscape:connector-curvature="0"
           style="fill:#808080"
           d="m 10.2965,3.1845 1.14104,0 0.557298,0.132635 0.557298,0 0.557298,-0.132635 0.265375,-0.265375 0,-0.424663 -0.265375,-0.424558 -0.291923,-0.291923 -0.398115,-0.132635 -0.716481,-0.13274 -0.689933,0 -0.981856,-0.159183 -1.1146009,0 -1.831079,0.159183 -1.40652,0.13274 -0.822673,0.424558 -0.159183,0.13274 -0.13274,0.291818 0.13274,0.424663 0.291923,0.265375 0.557298,0.132635 0.981856,-0.132635 1.1146,0 0,0.849221 -1.1146,0 -0.557298,0.132635 -0.557298,0.291923 -0.291923,0.39801 -0.132635,0.424663 0,1.11449 -0.849221,0 0,-1.11449 -0.2653759,-0.424663 -0.291923,-0.132635 -0.424558,-0.13274 -0.265375,0.13274 -0.291923,0.132635 -0.132635,0.159288 -0.13274,0.265375 0,0.981856 0,3.07831 0.13274,0.291923 0.132635,0.13274 0.291923,0.291818 0.265375,0 0.424558,0 0.291923,-0.291818 0.2653759,-0.424663 0,-1.24723 0.849221,0 0,0.557298 0.132635,0.424558 0.159288,0.557298 0.822673,0.822673 1.11449,0.557298 1.698439,0.291923 1.8045309,-0.291923 1.27378,-0.557298 0.689933,-0.822673 0.291923,-0.981856 0,-0.557298 0.822673,0 0,1.24723 0.159183,0.291923 0.13274,0.13274 0.265375,0.291818 0.424558,0 0.291923,0 0.265375,-0.291818 0.291923,-0.13274 0,-0.291923 0,-3.07831 0,-0.981856 0,-0.265375 -0.291923,-0.159288 -0.265375,-0.132635 -0.291923,-0.13274 -0.424558,0.13274 -0.265375,0.132635 -0.13274,0.159288 -0.159183,0.265375 0,1.11449 -0.822673,0 0,-1.11449 -0.159183,-0.424663 -0.265375,-0.39801 -0.557298,-0.291923 -0.557298,-0.132635 -1.14104,0 0,-0.849221 z m -5.3074999,3.21094 0,1.69844 0,-1.69844 z m -0.849221,1.69844 0,-1.69844 0,1.69844 z m 9.6595899,-1.69844 0,1.69844 0,-1.69844 z m -0.822673,1.69844 0,-1.69844 0,1.69844 z m -5.3339399,-4.90939 2.6537499,0 -2.6537499,0 z m 2.6537499,0.849221 -2.6537499,0 2.6537499,0 z"
           class="fil0"
           id="path4072" />
        <path
           inkscape:connector-curvature="0"
           style="fill:#ccccff;stroke:#000000;stroke-width:0.47196496;stroke-miterlimit:4;stroke-dasharray:none;stroke-opacity:1"
           d="m 9.1819291,2.0699 1.1146009,0 0.557193,0.13274 0.583846,0 0.557298,-0.13274 0.265375,-0.291923 0,-0.424558 -0.265375,-0.398115 -0.291923,-0.291923 -0.424558,-0.132635 -0.690038,-0.13274 -0.6899339,0 -0.981856,-0.159183 -1.14114,0 -1.804529,0.159183 -1.40652,0.13274 -0.8491169,0.424558 -0.13274,0.13274 -0.132635,0.265375 0.132635,0.424558 0.291923,0.291923 0.5572989,0.13274 0.981856,-0.13274 1.1146,0 0,0.849221 -1.1146,0 -0.557298,0.132635 -0.557193,0.265375 -0.2919239,0.424663 -0.13274,0.424558 0,1.1146 -0.849221,0 0,-1.1146 -0.265375,-0.424558 -0.291818,-0.13274 -0.424663,-0.132635 -0.265374,0.132635 -0.291923,0.13274 -0.132635,0.132635 -0.13274,0.291923 0,0.981856 0,3.07831 0.13274,0.291923 0.132635,0.13274 0.291923,0.265375 0.265374,0 0.424663,0 0.291818,-0.265375 0.265375,-0.424663 0,-1.27378 0.849221,0 0,0.583846 0.13274,0.398115 0.1326359,0.583741 0.849221,0.822673 1.1146,0.557298 1.671789,0.291923 1.83108,-0.291923 1.2472309,-0.557298 0.716586,-0.822673 0.265375,-0.981856 0,-0.583846 0.849116,0 0,1.27378 0.13274,0.291923 0.159183,0.13274 0.265375,0.265375 0.424663,0 0.291818,0 0.265375,-0.265375 0.291923,-0.13274 0,-0.291923 0,-3.07831 0,-0.981856 0,-0.291923 -0.291923,-0.132635 -0.265375,-0.13274 -0.291818,-0.132635 -0.424663,0.132635 -0.265375,0.13274 -0.159183,0.132635 -0.13274,0.291923 0,1.1146 -0.849116,0 0,-1.1146 -0.13274,-0.424558 -0.265375,-0.424663 -0.583846,-0.265375 -0.557193,-0.132635 -1.1146009,0 0,-0.849221 z m -5.3074999,3.21105 0,1.67179 0,-1.67179 z m -0.849221,1.67179 0,-1.67179 0,1.67179 z m 9.6595908,-1.67179 0,1.67179 0,-1.67179 z m -0.849116,1.67179 0,-1.67179 0,1.67179 z M 6.5281831,2.0699 l 2.653749,0 -2.653749,0 z m 2.653749,0.849221 -2.653749,0 2.653749,0 z"
           class="fil1"
           id="path4074" />
        <polygon
           style="fill:#ccccff;stroke:#000000;stroke-width:0.47196496;stroke-miterlimit:4;stroke-dasharray:none;stroke-opacity:1"
           points="16.2674,12.5522 16.1612,12.3664 15.9755,12.2071 15.7897,12.0745 15.5508,11.9683 15.2855,11.9152 15.0201,11.8887 1.6188,11.8622 1.32687,11.9152 1.0615,11.9683 0.849221,12.0745 0.636942,12.2071 0.477654,12.3664 0.345019,12.5522 0.265375,12.7379 0.238827,12.9236 0.238827,18.3373 0.265375,18.6027 0.345019,18.7884 0.477654,18.9742 0.636942,19.1334 0.849221,19.2661 1.0615,19.3723 1.32687,19.4254 1.6188,19.4518 15.0201,19.4254 15.2855,19.4254 15.5508,19.3723 15.7897,19.2661 15.9755,19.1334 16.1612,18.9742 16.2674,18.7884 16.347,18.6027 16.3735,18.3639 16.3735,12.9236 16.347,12.7379 "
           class="fil1"
           id="polygon4076" />
      </g>
      <g
         transform="matrix(0.94638576,0,0,0.94638576,64.792907,-0.08330838)"
         id="g4078"
         style="fill-rule:evenodd">
        <path
           inkscape:connector-curvature="0"
           id="path4080"
           class="fil0"
           d="m 10.2965,3.1845 1.14104,0 0.557298,0.132635 0.557298,0 0.557298,-0.132635 0.265375,-0.265375 0,-0.424663 -0.265375,-0.424558 -0.291923,-0.291923 -0.398115,-0.132635 -0.716481,-0.13274 -0.689933,0 -0.981856,-0.159183 -1.1146009,0 -1.831079,0.159183 -1.40652,0.13274 -0.822673,0.424558 -0.159183,0.13274 -0.13274,0.291818 0.13274,0.424663 0.291923,0.265375 0.557298,0.132635 0.981856,-0.132635 1.1146,0 0,0.849221 -1.1146,0 -0.557298,0.132635 -0.557298,0.291923 -0.291923,0.39801 -0.132635,0.424663 0,1.11449 -0.849221,0 0,-1.11449 -0.2653759,-0.424663 -0.291923,-0.132635 -0.424558,-0.13274 -0.265375,0.13274 -0.291923,0.132635 -0.132635,0.159288 -0.13274,0.265375 0,0.981856 0,3.07831 0.13274,0.291923 0.132635,0.13274 0.291923,0.291818 0.265375,0 0.424558,0 0.291923,-0.291818 0.2653759,-0.424663 0,-1.24723 0.849221,0 0,0.557298 0.132635,0.424558 0.159288,0.557298 0.822673,0.822673 1.11449,0.557298 1.698439,0.291923 1.8045309,-0.291923 1.27378,-0.557298 0.689933,-0.822673 0.291923,-0.981856 0,-0.557298 0.822673,0 0,1.24723 0.159183,0.291923 0.13274,0.13274 0.265375,0.291818 0.424558,0 0.291923,0 0.265375,-0.291818 0.291923,-0.13274 0,-0.291923 0,-3.07831 0,-0.981856 0,-0.265375 -0.291923,-0.159288 -0.265375,-0.132635 -0.291923,-0.13274 -0.424558,0.13274 -0.265375,0.132635 -0.13274,0.159288 -0.159183,0.265375 0,1.11449 -0.822673,0 0,-1.11449 -0.159183,-0.424663 -0.265375,-0.39801 -0.557298,-0.291923 -0.557298,-0.132635 -1.14104,0 0,-0.849221 z m -5.3074999,3.21094 0,1.69844 0,-1.69844 z m -0.849221,1.69844 0,-1.69844 0,1.69844 z m 9.6595899,-1.69844 0,1.69844 0,-1.69844 z m -0.822673,1.69844 0,-1.69844 0,1.69844 z m -5.3339399,-4.90939 2.6537499,0 -2.6537499,0 z m 2.6537499,0.849221 -2.6537499,0 2.6537499,0 z"
           style="fill:#808080" />
        <path
           inkscape:connector-curvature="0"
           id="path4082"
           class="fil1"
           d="m 9.1819291,2.0699 1.1146009,0 0.557193,0.13274 0.583846,0 0.557298,-0.13274 0.265375,-0.291923 0,-0.424558 -0.265375,-0.398115 -0.291923,-0.291923 -0.424558,-0.132635 -0.690038,-0.13274 -0.6899339,0 -0.981856,-0.159183 -1.14114,0 -1.804529,0.159183 -1.40652,0.13274 -0.8491169,0.424558 -0.13274,0.13274 -0.132635,0.265375 0.132635,0.424558 0.291923,0.291923 0.5572989,0.13274 0.981856,-0.13274 1.1146,0 0,0.849221 -1.1146,0 -0.557298,0.132635 -0.557193,0.265375 -0.2919239,0.424663 -0.13274,0.424558 0,1.1146 -0.849221,0 0,-1.1146 -0.265375,-0.424558 -0.291818,-0.13274 -0.424663,-0.132635 -0.265374,0.132635 -0.291923,0.13274 -0.132635,0.132635 -0.13274,0.291923 0,0.981856 0,3.07831 0.13274,0.291923 0.132635,0.13274 0.291923,0.265375 0.265374,0 0.424663,0 0.291818,-0.265375 0.265375,-0.424663 0,-1.27378 0.849221,0 0,0.583846 0.13274,0.398115 0.1326359,0.583741 0.849221,0.822673 1.1146,0.557298 1.671789,0.291923 1.83108,-0.291923 1.2472309,-0.557298 0.716586,-0.822673 0.265375,-0.981856 0,-0.583846 0.849116,0 0,1.27378 0.13274,0.291923 0.159183,0.13274 0.265375,0.265375 0.424663,0 0.291818,0 0.265375,-0.265375 0.291923,-0.13274 0,-0.291923 0,-3.07831 0,-0.981856 0,-0.291923 -0.291923,-0.132635 -0.265375,-0.13274 -0.291818,-0.132635 -0.424663,0.132635 -0.265375,0.13274 -0.159183,0.132635 -0.13274,0.291923 0,1.1146 -0.849116,0 0,-1.1146 -0.13274,-0.424558 -0.265375,-0.424663 -0.583846,-0.265375 -0.557193,-0.132635 -1.1146009,0 0,-0.849221 z m -5.3074999,3.21105 0,1.67179 0,-1.67179 z m -0.849221,1.67179 0,-1.67179 0,1.67179 z m 9.6595908,-1.67179 0,1.67179 0,-1.67179 z m -0.849116,1.67179 0,-1.67179 0,1.67179 z M 6.5281831,2.0699 l 2.653749,0 -2.653749,0 z m 2.653749,0.849221 -2.653749,0 2.653749,0 z"
           style="fill:#ccccff;stroke:#000000;stroke-width:0.47196496;stroke-miterlimit:4;stroke-dasharray:none;stroke-opacity:1" />
        <polygon
           id="polygon4084"
           class="fil1"
           points="16.1612,12.3664 15.9755,12.2071 15.7897,12.0745 15.5508,11.9683 15.2855,11.9152 15.0201,11.8887 1.6188,11.8622 1.32687,11.9152 1.0615,11.9683 0.849221,12.0745 0.636942,12.2071 0.477654,12.3664 0.345019,12.5522 0.265375,12.7379 0.238827,12.9236 0.238827,18.3373 0.265375,18.6027 0.345019,18.7884 0.477654,18.9742 0.636942,19.1334 0.849221,19.2661 1.0615,19.3723 1.32687,19.4254 1.6188,19.4518 15.0201,19.4254 15.2855,19.4254 15.5508,19.3723 15.7897,19.2661 15.9755,19.1334 16.1612,18.9742 16.2674,18.7884 16.347,18.6027 16.3735,18.3639 16.3735,12.9236 16.347,12.7379 16.2674,12.5522 "
           style="fill:#ccccff;stroke:#000000;stroke-width:0.47196496;stroke-miterlimit:4;stroke-dasharray:none;stroke-opacity:1" />
      </g>
      <g
         style="fill-rule:evenodd"
         id="g4086"
         transform="matrix(0.94638576,0,0,0.94638576,85.965374,-0.08330838)">
        <path
           inkscape:connector-curvature="0"
           style="fill:#808080"
           d="m 10.2965,3.1845 1.14104,0 0.557298,0.132635 0.557298,0 0.557298,-0.132635 0.265375,-0.265375 0,-0.424663 -0.265375,-0.424558 -0.291923,-0.291923 -0.398115,-0.132635 -0.716481,-0.13274 -0.689933,0 -0.981856,-0.159183 -1.1146009,0 -1.831079,0.159183 -1.40652,0.13274 -0.822673,0.424558 -0.159183,0.13274 -0.13274,0.291818 0.13274,0.424663 0.291923,0.265375 0.557298,0.132635 0.981856,-0.132635 1.1146,0 0,0.849221 -1.1146,0 -0.557298,0.132635 -0.557298,0.291923 -0.291923,0.39801 -0.132635,0.424663 0,1.11449 -0.849221,0 0,-1.11449 -0.2653759,-0.424663 -0.291923,-0.132635 -0.424558,-0.13274 -0.265375,0.13274 -0.291923,0.132635 -0.132635,0.159288 -0.13274,0.265375 0,0.981856 0,3.07831 0.13274,0.291923 0.132635,0.13274 0.291923,0.291818 0.265375,0 0.424558,0 0.291923,-0.291818 0.2653759,-0.424663 0,-1.24723 0.849221,0 0,0.557298 0.132635,0.424558 0.159288,0.557298 0.822673,0.822673 1.11449,0.557298 1.698439,0.291923 1.8045309,-0.291923 1.27378,-0.557298 0.689933,-0.822673 0.291923,-0.981856 0,-0.557298 0.822673,0 0,1.24723 0.159183,0.291923 0.13274,0.13274 0.265375,0.291818 0.424558,0 0.291923,0 0.265375,-0.291818 0.291923,-0.13274 0,-0.291923 0,-3.07831 0,-0.981856 0,-0.265375 -0.291923,-0.159288 -0.265375,-0.132635 -0.291923,-0.13274 -0.424558,0.13274 -0.265375,0.132635 -0.13274,0.159288 -0.159183,0.265375 0,1.11449 -0.822673,0 0,-1.11449 -0.159183,-0.424663 -0.265375,-0.39801 -0.557298,-0.291923 -0.557298,-0.132635 -1.14104,0 0,-0.849221 z m -5.3074999,3.21094 0,1.69844 0,-1.69844 z m -0.849221,1.69844 0,-1.69844 0,1.69844 z m 9.6595899,-1.69844 0,1.69844 0,-1.69844 z m -0.822673,1.69844 0,-1.69844 0,1.69844 z m -5.3339399,-4.90939 2.6537499,0 -2.6537499,0 z m 2.6537499,0.849221 -2.6537499,0 2.6537499,0 z"
           class="fil0"
           id="path4088" />
        <path
           inkscape:connector-curvature="0"
           style="fill:#ccccff;stroke:#000000;stroke-width:0.47196496;stroke-miterlimit:4;stroke-dasharray:none;stroke-opacity:1"
           d="m 9.1819291,2.0699 1.1146009,0 0.557193,0.13274 0.583846,0 0.557298,-0.13274 0.265375,-0.291923 0,-0.424558 -0.265375,-0.398115 -0.291923,-0.291923 -0.424558,-0.132635 -0.690038,-0.13274 -0.6899339,0 -0.981856,-0.159183 -1.14114,0 -1.804529,0.159183 -1.40652,0.13274 -0.8491169,0.424558 -0.13274,0.13274 -0.132635,0.265375 0.132635,0.424558 0.291923,0.291923 0.5572989,0.13274 0.981856,-0.13274 1.1146,0 0,0.849221 -1.1146,0 -0.557298,0.132635 -0.557193,0.265375 -0.2919239,0.424663 -0.13274,0.424558 0,1.1146 -0.849221,0 0,-1.1146 -0.265375,-0.424558 -0.291818,-0.13274 -0.424663,-0.132635 -0.265374,0.132635 -0.291923,0.13274 -0.132635,0.132635 -0.13274,0.291923 0,0.981856 0,3.07831 0.13274,0.291923 0.132635,0.13274 0.291923,0.265375 0.265374,0 0.424663,0 0.291818,-0.265375 0.265375,-0.424663 0,-1.27378 0.849221,0 0,0.583846 0.13274,0.398115 0.1326359,0.583741 0.849221,0.822673 1.1146,0.557298 1.671789,0.291923 1.83108,-0.291923 1.2472309,-0.557298 0.716586,-0.822673 0.265375,-0.981856 0,-0.583846 0.849116,0 0,1.27378 0.13274,0.291923 0.159183,0.13274 0.265375,0.265375 0.424663,0 0.291818,0 0.265375,-0.265375 0.291923,-0.13274 0,-0.291923 0,-3.07831 0,-0.981856 0,-0.291923 -0.291923,-0.132635 -0.265375,-0.13274 -0.291818,-0.132635 -0.424663,0.132635 -0.265375,0.13274 -0.159183,0.132635 -0.13274,0.291923 0,1.1146 -0.849116,0 0,-1.1146 -0.13274,-0.424558 -0.265375,-0.424663 -0.583846,-0.265375 -0.557193,-0.132635 -1.1146009,0 0,-0.849221 z m -5.3074999,3.21105 0,1.67179 0,-1.67179 z m -0.849221,1.67179 0,-1.67179 0,1.67179 z m 9.6595908,-1.67179 0,1.67179 0,-1.67179 z m -0.849116,1.67179 0,-1.67179 0,1.67179 z M 6.5281831,2.0699 l 2.653749,0 -2.653749,0 z m 2.653749,0.849221 -2.653749,0 2.653749,0 z"
           class="fil1"
           id="path4090" />
        <polygon
           style="fill:#ccccff;stroke:#000000;stroke-width:0.47196496;stroke-miterlimit:4;stroke-dasharray:none;stroke-opacity:1"
           points="15.9755,12.2071 15.7897,12.0745 15.5508,11.9683 15.2855,11.9152 15.0201,11.8887 1.6188,11.8622 1.32687,11.9152 1.0615,11.9683 0.849221,12.0745 0.636942,12.2071 0.477654,12.3664 0.345019,12.5522 0.265375,12.7379 0.238827,12.9236 0.238827,18.3373 0.265375,18.6027 0.345019,18.7884 0.477654,18.9742 0.636942,19.1334 0.849221,19.2661 1.0615,19.3723 1.32687,19.4254 1.6188,19.4518 15.0201,19.4254 15.2855,19.4254 15.5508,19.3723 15.7897,19.2661 15.9755,19.1334 16.1612,18.9742 16.2674,18.7884 16.347,18.6027 16.3735,18.3639 16.3735,12.9236 16.347,12.7379 16.2674,12.5522 16.1612,12.3664 "
           class="fil1"
           id="polygon4092" />
      </g>
    </g>
  </g>
</svg>
